<?xml version="1.0"?>
<svg xmlns="http://www.w3.org/2000/svg" xmlns:xlink="http://www.w3.org/1999/xlink" xmlns:svgjs="http://svgjs.com/svgjs" version="1.1" width="512" height="512" x="0" y="0" viewBox="0 0 512 512" style="enable-background:new 0 0 512 512" xml:space="preserve" class=""><g transform="matrix(1,0,0,1,75,0)"><path xmlns="http://www.w3.org/2000/svg" d="m181.332031 12.800781c-94.996093 0-172.265625 77.289063-172.265625 172.265625 0 166.527344 158.871094 305.8125 165.632813 311.660156 1.917969 1.640626 4.265625 2.472657 6.632812 2.472657 2.371094 0 4.714844-.832031 6.636719-2.472657 6.761719-5.847656 165.632812-145.132812 165.632812-311.660156 0-94.976562-77.269531-172.265625-172.269531-172.265625zm0 0" fill="#f8e5ee" data-original="#2196f3" style=""/><path xmlns="http://www.w3.org/2000/svg" d="m188.886719 88.449219c-4.160157-4.160157-10.925781-4.160157-15.085938 0l-85.332031 85.332031c-3.070312 3.050781-3.988281 7.660156-2.324219 11.625 1.640625 3.992188 5.546875 6.59375 9.855469 6.59375h10.667969v74.667969c0 5.886719 4.777343 10.664062 10.664062 10.664062h42.667969c5.886719 0 10.667969-4.777343 10.667969-10.664062v-53.335938h21.332031v53.335938c0 5.886719 4.777344 10.664062 10.667969 10.664062h42.664062c5.890625 0 10.667969-4.777343 10.667969-10.664062v-74.667969h10.667969c4.308593 0 8.210937-2.601562 9.855469-6.59375 1.664062-3.988281.746093-8.574219-2.304688-11.625zm0 0" fill="#f8e5ee" data-original="#fafafa" style="" class=""/><path xmlns="http://www.w3.org/2000/svg" d="m181.332031 512c-2.472656 0-4.96875-.875-6.976562-2.601562-7.125-6.144532-174.355469-152.746094-174.355469-328.066407 0-99.988281 81.34375-181.332031 181.332031-181.332031 99.992188 0 181.335938 81.34375 181.335938 181.332031 0 175.320313-167.234375 321.921875-174.359375 328.066407-2.003906 1.726562-4.5 2.601562-6.976563 2.601562zm0-490.667969c-88.234375 0-160 71.765625-160 160 0 145.964844 128.34375 275.757813 160 305.539063 31.636719-29.804688 160-159.746094 160-305.539063 0-88.234375-71.765625-160-160-160zm0 0" fill="#912f40" data-original="#000000" style="" class=""/><path xmlns="http://www.w3.org/2000/svg" d="m245.332031 277.332031h-42.664062c-5.890625 0-10.667969-4.777343-10.667969-10.664062v-53.335938h-21.332031v53.335938c0 5.886719-4.78125 10.664062-10.667969 10.664062h-42.667969c-5.886719 0-10.664062-4.777343-10.664062-10.664062v-74.667969h-10.667969c-4.308594 0-8.214844-2.601562-9.855469-6.59375-1.644531-3.988281-.726562-8.554688 2.304688-11.625l85.332031-85.332031c4.160156-4.160157 10.921875-4.160157 15.082031 0l85.335938 85.332031c3.046875 3.050781 3.964843 7.636719 2.300781 11.625-1.664062 3.992188-5.523438 6.59375-9.832031 6.59375h-10.667969v74.667969c0 5.886719-4.777344 10.664062-10.667969 10.664062zm-32-21.332031h21.335938v-74.667969c0-4.5625 2.878906-8.46875 6.910156-9.984375l-60.246094-60.265625-60.242187 60.265625c4.03125 1.515625 6.910156 5.421875 6.910156 9.984375v74.667969h21.332031v-53.332031c0-5.890625 4.78125-10.667969 10.667969-10.667969h42.667969c5.886719 0 10.664062 4.777344 10.664062 10.667969zm0 0" fill="#912f40" data-original="#000000" style="" class=""/></g></svg>
